<mxfile host="app.diagrams.net" agent="Mozilla/5.0 (Windows NT 10.0; Win64; x64; rv:136.0) Gecko/20100101 Firefox/136.0" version="26.1.0">
  <diagram name="Страница — 1" id="1QfvMjIt6kSm-26QrTTU">
    <mxGraphModel dx="926" dy="1263" grid="1" gridSize="10" guides="1" tooltips="1" connect="1" arrows="1" fold="1" page="1" pageScale="1" pageWidth="1654" pageHeight="1169" math="0" shadow="0">
      <root>
        <mxCell id="0" />
        <mxCell id="1" parent="0" />
        <mxCell id="hEbEdlZakMNNl_RcjGQe-7" style="edgeStyle=orthogonalEdgeStyle;shape=connector;curved=1;rounded=0;orthogonalLoop=1;jettySize=auto;html=1;entryX=0;entryY=0.5;entryDx=0;entryDy=0;strokeColor=light-dark(#4A890C,#4A890C);align=center;verticalAlign=middle;fontFamily=Helvetica;fontSize=11;fontColor=default;labelBackgroundColor=default;endArrow=classic;strokeWidth=2;exitX=1;exitY=0.5;exitDx=0;exitDy=0;entryPerimeter=0;" edge="1" parent="1" source="hEbEdlZakMNNl_RcjGQe-16" target="XhbC9aTRr4sNY5ImtjRr-4">
          <mxGeometry relative="1" as="geometry" />
        </mxCell>
        <mxCell id="hEbEdlZakMNNl_RcjGQe-17" style="edgeStyle=orthogonalEdgeStyle;shape=connector;curved=1;rounded=0;orthogonalLoop=1;jettySize=auto;html=1;entryX=0;entryY=0.5;entryDx=0;entryDy=0;strokeColor=light-dark(#4A890C,#4A890C);align=center;verticalAlign=middle;fontFamily=Helvetica;fontSize=11;fontColor=default;labelBackgroundColor=default;endArrow=classic;strokeWidth=2;" edge="1" parent="1" source="XhbC9aTRr4sNY5ImtjRr-1" target="hEbEdlZakMNNl_RcjGQe-14">
          <mxGeometry relative="1" as="geometry" />
        </mxCell>
        <UserObject label="&lt;div&gt;Same-Gender Romances for LE1&lt;/div&gt;" link="https://www.nexusmods.com/masseffectlegendaryedition/mods/564" id="XhbC9aTRr4sNY5ImtjRr-1">
          <mxCell style="rounded=1;whiteSpace=wrap;html=1;fillColor=#60a917;fontColor=default;strokeColor=#2D7600;points=[[0,0.5,0,0,0],[0.5,0,0,0,0],[0.5,1,0,0,0],[1,0.5,0,0,0]];" parent="1" vertex="1">
            <mxGeometry x="40" y="445" width="110" height="30" as="geometry" />
          </mxCell>
        </UserObject>
        <UserObject label="&lt;div&gt;LE1 Sideloader Framework&lt;/div&gt;" link="https://www.nexusmods.com/masseffectlegendaryedition/mods/1309" id="XhbC9aTRr4sNY5ImtjRr-2">
          <mxCell style="rounded=1;whiteSpace=wrap;html=1;fillColor=light-dark(#666666,#666666);strokeColor=light-dark(#666666,#666666);sketch=1;curveFitting=1;jiggle=2;points=[[0,0.5,0,0,0],[0.5,0,0,0,0],[0.5,1,0,0,0],[1,0.5,0,0,0]];" parent="1" vertex="1">
            <mxGeometry x="50" y="190" width="100" height="30" as="geometry" />
          </mxCell>
        </UserObject>
        <mxCell id="hEbEdlZakMNNl_RcjGQe-4" style="edgeStyle=orthogonalEdgeStyle;shape=connector;curved=1;rounded=0;orthogonalLoop=1;jettySize=auto;html=1;exitX=1;exitY=0.5;exitDx=0;exitDy=0;entryX=0;entryY=0.5;entryDx=0;entryDy=0;strokeColor=light-dark(#0050EF,#0050EF);align=center;verticalAlign=middle;fontFamily=Helvetica;fontSize=11;fontColor=default;labelBackgroundColor=default;endArrow=classic;strokeWidth=3;" edge="1" parent="1" source="XhbC9aTRr4sNY5ImtjRr-3" target="XhbC9aTRr4sNY5ImtjRr-9">
          <mxGeometry relative="1" as="geometry" />
        </mxCell>
        <mxCell id="hEbEdlZakMNNl_RcjGQe-42" style="edgeStyle=orthogonalEdgeStyle;shape=connector;curved=1;rounded=0;orthogonalLoop=1;jettySize=auto;html=1;entryX=0;entryY=0.5;entryDx=0;entryDy=0;strokeColor=light-dark(#0050EF,#0050EF);align=center;verticalAlign=middle;fontFamily=Helvetica;fontSize=11;fontColor=default;labelBackgroundColor=default;endArrow=classic;strokeWidth=3;" edge="1" parent="1" source="XhbC9aTRr4sNY5ImtjRr-3" target="hEbEdlZakMNNl_RcjGQe-41">
          <mxGeometry relative="1" as="geometry" />
        </mxCell>
        <UserObject label="&lt;div&gt;LE1 Community Patch&lt;/div&gt;" link="https://www.nexusmods.com/masseffectlegendaryedition/mods/23" id="XhbC9aTRr4sNY5ImtjRr-3">
          <mxCell style="rounded=1;whiteSpace=wrap;html=1;fillColor=light-dark(#0050EF,#0050EF);fontColor=default;strokeColor=light-dark(#B2CBFF,#B2CBFF);points=[[0,0.5,0,0,0],[0.5,0,0,0,0],[0.5,1,0,0,0],[1,0.5,0,0,0]];sketch=1;curveFitting=1;jiggle=2;" parent="1" vertex="1">
            <mxGeometry x="190" y="80" width="100" height="30" as="geometry" />
          </mxCell>
        </UserObject>
        <UserObject label="&lt;div&gt;LE1 Diversification Project&lt;/div&gt;" link="https://www.nexusmods.com/masseffectlegendaryedition/mods/1172" id="XhbC9aTRr4sNY5ImtjRr-4">
          <mxCell style="rounded=1;whiteSpace=wrap;html=1;fillColor=light-dark(#0050EF,#0050EF);fontColor=default;strokeColor=light-dark(#B2CBFF,#B2CBFF);points=[[0,0.5,0,0,0],[0.5,0,0,0,0],[0.5,1,0,0,0],[1,0.5,0,0,0]];sketch=1;curveFitting=1;jiggle=2;" parent="1" vertex="1">
            <mxGeometry x="790" y="40" width="110" height="30" as="geometry" />
          </mxCell>
        </UserObject>
        <UserObject label="LE1 Definitive Audio Overhaul" link="https://www.nexusmods.com/masseffectlegendaryedition/mods/1560" id="XhbC9aTRr4sNY5ImtjRr-5">
          <mxCell style="rounded=1;whiteSpace=wrap;html=1;fillColor=light-dark(#0050EF,#0050EF);fontColor=default;strokeColor=light-dark(#B2CBFF,#B2CBFF);points=[[0,0.5,0,0,0],[0.5,0,0,0,0],[0.5,1,0,0,0],[1,0.5,0,0,0]];sketch=1;curveFitting=1;jiggle=2;" parent="1" vertex="1">
            <mxGeometry x="790" y="80" width="100" height="30" as="geometry" />
          </mxCell>
        </UserObject>
        <UserObject label="A Lot of Videos for LE1" link="https://www.nexusmods.com/masseffectlegendaryedition/mods/3" id="XhbC9aTRr4sNY5ImtjRr-6">
          <mxCell style="rounded=0;whiteSpace=wrap;html=1;fillColor=light-dark(#0050EF,#0050EF);fontColor=default;strokeColor=default;fillStyle=hatch;gradientColor=none;sketch=1;curveFitting=1;jiggle=2;glass=0;shadow=0;points=[[0,0.5,0,0,0],[0.5,0,0,0,0],[0.5,1,0,0,0],[1,0.5,0,0,0]];" parent="1" vertex="1">
            <mxGeometry x="790" width="110" height="30" as="geometry" />
          </mxCell>
        </UserObject>
        <UserObject label="A Little Help From My Friends (LE1)" link="https://www.nexusmods.com/masseffectlegendaryedition/mods/1526" id="XhbC9aTRr4sNY5ImtjRr-7">
          <mxCell style="rounded=1;whiteSpace=wrap;html=1;fillColor=none;fontColor=default;strokeColor=#2D7600;points=[[0,0.5,0,0,0],[0.5,0,0,0,0],[0.5,1,0,0,0],[1,0.5,0,0,0]];" parent="1" vertex="1">
            <mxGeometry x="390" y="960" width="110" height="30" as="geometry" />
          </mxCell>
        </UserObject>
        <UserObject label="Advanced Weapon Models for LE1" link="https://www.nexusmods.com/masseffectlegendaryedition/mods/853" id="XhbC9aTRr4sNY5ImtjRr-8">
          <mxCell style="rounded=1;whiteSpace=wrap;html=1;fillColor=light-dark(#4A890C,#4A890C);fontColor=default;strokeColor=#2D7600;sketch=1;curveFitting=1;jiggle=2;points=[[0,0.5,0,0,0],[0.5,0,0,0,0],[0.5,1,0,0,0],[1,0.5,0,0,0]];" parent="1" vertex="1">
            <mxGeometry x="390" y="180" width="110" height="30" as="geometry" />
          </mxCell>
        </UserObject>
        <UserObject label="Alliance Uniform Consistency" link="https://www.nexusmods.com/masseffectlegendaryedition/mods/799" id="XhbC9aTRr4sNY5ImtjRr-9">
          <mxCell style="rounded=1;whiteSpace=wrap;html=1;fillColor=none;fontColor=default;strokeColor=#2D7600;points=[[0,0.5,0,0,0],[0.5,0,0,0,0],[0.5,1,0,0,0],[1,0.5,0,0,0]];" parent="1" vertex="1">
            <mxGeometry x="395" y="365" width="100" height="30" as="geometry" />
          </mxCell>
        </UserObject>
        <UserObject label="Appearance Modification Menu" link="https://www.nexusmods.com/masseffectlegendaryedition/mods/2513" id="XhbC9aTRr4sNY5ImtjRr-10">
          <mxCell style="rounded=1;whiteSpace=wrap;html=1;fillColor=light-dark(#4A890C,#4A890C);fontColor=default;strokeColor=#2D7600;points=[[0,0.5,0,0,0],[0.5,0,0,0,0],[0.5,1,0,0,0],[1,0.5,0,0,0]];sketch=1;curveFitting=1;jiggle=2;" parent="1" vertex="1">
            <mxGeometry x="390" y="120" width="110" height="30" as="geometry" />
          </mxCell>
        </UserObject>
        <mxCell id="hEbEdlZakMNNl_RcjGQe-35" style="shape=connector;rounded=0;orthogonalLoop=1;jettySize=auto;html=1;strokeColor=light-dark(#4A890C,#4A890C);align=center;verticalAlign=middle;fontFamily=Helvetica;fontSize=11;fontColor=default;labelBackgroundColor=default;endArrow=none;dashed=1;startFill=0;" edge="1" parent="1" source="XhbC9aTRr4sNY5ImtjRr-11" target="XhbC9aTRr4sNY5ImtjRr-18">
          <mxGeometry relative="1" as="geometry" />
        </mxCell>
        <UserObject label="Black Market License (LE1)" link="https://www.nexusmods.com/masseffectlegendaryedition/mods/661" id="XhbC9aTRr4sNY5ImtjRr-11">
          <mxCell style="rounded=1;whiteSpace=wrap;html=1;fillColor=light-dark(#4A890C,#4A890C);fontColor=default;strokeColor=#2D7600;points=[[0,0.5,0,0,0],[0.5,0,0,0,0],[0.5,1,0,0,0],[1,0.5,0,0,0]];sketch=1;curveFitting=1;jiggle=2;" parent="1" vertex="1">
            <mxGeometry x="400" y="230" width="90" height="30" as="geometry" />
          </mxCell>
        </UserObject>
        <UserObject label="Caleston Restored" link="https://www.nexusmods.com/masseffectlegendaryedition/mods/2238" id="XhbC9aTRr4sNY5ImtjRr-12">
          <mxCell style="rounded=1;whiteSpace=wrap;html=1;fillColor=light-dark(#E51400,#E51400);fontColor=default;strokeColor=light-dark(#FFACAC,#FFACAC);points=[[0,0.5,0,0,0],[0.5,0,0,0,0],[0.5,1,0,0,0],[1,0.5,0,0,0]];sketch=1;curveFitting=1;jiggle=2;" parent="1" vertex="1">
            <mxGeometry x="790" y="300" width="110" height="20" as="geometry" />
          </mxCell>
        </UserObject>
        <mxCell id="hEbEdlZakMNNl_RcjGQe-5" style="edgeStyle=orthogonalEdgeStyle;shape=connector;curved=1;rounded=0;orthogonalLoop=1;jettySize=auto;html=1;exitX=1;exitY=0.5;exitDx=0;exitDy=0;entryX=0;entryY=0.5;entryDx=0;entryDy=0;strokeColor=default;align=center;verticalAlign=middle;fontFamily=Helvetica;fontSize=11;fontColor=default;labelBackgroundColor=default;endArrow=classic;" edge="1" parent="1" source="XhbC9aTRr4sNY5ImtjRr-13" target="XhbC9aTRr4sNY5ImtjRr-9">
          <mxGeometry relative="1" as="geometry" />
        </mxCell>
        <UserObject label="Casual Hubs for LE1" link="https://www.nexusmods.com/masseffectlegendaryedition/mods/574" id="XhbC9aTRr4sNY5ImtjRr-13">
          <mxCell style="rounded=1;whiteSpace=wrap;html=1;fillColor=none;fontColor=default;strokeColor=#2D7600;points=[[0,0.5,0,0,0],[0.5,0,0,0,0],[0.5,1,0,0,0],[1,0.5,0,0,0]];" parent="1" vertex="1">
            <mxGeometry x="200" y="345" width="120" height="20" as="geometry" />
          </mxCell>
        </UserObject>
        <UserObject label="Caleston Restored - Russian" link="https://www.nexusmods.com/masseffectlegendaryedition/mods/2408" id="XhbC9aTRr4sNY5ImtjRr-14">
          <mxCell style="rounded=1;whiteSpace=wrap;html=1;fillColor=none;fontColor=default;strokeColor=light-dark(#E51400,#E51400);points=[[0,0.5,0,0,0],[0.5,0,0,0,0],[0.5,1,0,0,0],[1,0.5,0,0,0]];" parent="1" vertex="1">
            <mxGeometry x="785" y="250" width="120" height="30" as="geometry" />
          </mxCell>
        </UserObject>
        <UserObject label="Combat Communication (LE1)" link="https://www.nexusmods.com/masseffectlegendaryedition/mods/1934" id="XhbC9aTRr4sNY5ImtjRr-15">
          <mxCell style="rounded=1;whiteSpace=wrap;html=1;fillColor=light-dark(#4A890C,#4A890C);fontColor=default;strokeColor=#2D7600;points=[[0,0.5,0,0,0],[0.5,0,0,0,0],[0.5,1,0,0,0],[1,0.5,0,0,0]];sketch=1;curveFitting=1;jiggle=2;" parent="1" vertex="1">
            <mxGeometry x="390" y="760" width="120" height="30" as="geometry" />
          </mxCell>
        </UserObject>
        <UserObject label="Eclectic Emails (LE1)" link="https://www.nexusmods.com/masseffectlegendaryedition/mods/1563" id="XhbC9aTRr4sNY5ImtjRr-16">
          <mxCell style="rounded=1;whiteSpace=wrap;html=1;fillColor=none;fontColor=default;strokeColor=#2D7600;points=[[0,0.5,0,0,0],[0.5,0,0,0,0],[0.5,1,0,0,0],[1,0.5,0,0,0]];" parent="1" vertex="1">
            <mxGeometry x="390" y="1005" width="120" height="20" as="geometry" />
          </mxCell>
        </UserObject>
        <UserObject label="Halcyon Hairpack (LE1)" link="https://www.nexusmods.com/masseffectlegendaryedition/mods/1497" id="XhbC9aTRr4sNY5ImtjRr-17">
          <mxCell style="rounded=1;whiteSpace=wrap;html=1;fillColor=none;fontColor=default;strokeColor=#2D7600;points=[[0,0.5,0,0,0],[0.5,0,0,0,0],[0.5,1,0,0,0],[1,0.5,0,0,0]];" parent="1" vertex="1">
            <mxGeometry x="580" y="560" width="130" height="20" as="geometry" />
          </mxCell>
        </UserObject>
        <UserObject label="Elements of Comparative Weaponry (LE1)" link="https://www.nexusmods.com/masseffectlegendaryedition/mods/639" id="XhbC9aTRr4sNY5ImtjRr-18">
          <mxCell style="rounded=1;whiteSpace=wrap;html=1;fillColor=light-dark(#4A890C,#4A890C);fontColor=default;strokeColor=#2D7600;fontSize=10;points=[[0,0.5,0,0,0],[0.5,0,0,0,0],[0.5,1,0,0,0],[1,0.5,0,0,0]];sketch=1;curveFitting=1;jiggle=2;" parent="1" vertex="1">
            <mxGeometry x="385" y="280" width="120" height="30" as="geometry" />
          </mxCell>
        </UserObject>
        <UserObject label="Galaxy Map Trackers (LE1)" link="https://www.nexusmods.com/masseffectlegendaryedition/mods/426" id="XhbC9aTRr4sNY5ImtjRr-19">
          <mxCell style="rounded=1;whiteSpace=wrap;html=1;fillColor=none;fontColor=default;strokeColor=#2D7600;points=[[0,0.5,0,0,0],[0.5,0,0,0,0],[0.5,1,0,0,0],[1,0.5,0,0,0]];" parent="1" vertex="1">
            <mxGeometry x="390" y="640" width="90" height="30" as="geometry" />
          </mxCell>
        </UserObject>
        <UserObject label="Faster Airlock" link="https://www.nexusmods.com/masseffectlegendaryedition/mods/753" id="XhbC9aTRr4sNY5ImtjRr-20">
          <mxCell style="rounded=1;whiteSpace=wrap;html=1;fillColor=none;fontColor=default;strokeColor=#2D7600;points=[[0,0.5,0,0,0],[0.5,0,0,0,0],[0.5,1,0,0,0],[1,0.5,0,0,0]];" parent="1" vertex="1">
            <mxGeometry x="190" y="560" width="90" height="20" as="geometry" />
          </mxCell>
        </UserObject>
        <UserObject label="&lt;div&gt;Legendary Cutscenes (LE1)&lt;/div&gt;" link="https://www.nexusmods.com/masseffectlegendaryedition/mods/2341" id="XhbC9aTRr4sNY5ImtjRr-21">
          <mxCell style="rounded=1;whiteSpace=wrap;html=1;fillColor=none;fontColor=default;strokeColor=#2D7600;points=[[0,0.5,0,0,0],[0.5,0,0,0,0],[0.5,1,0,0,0],[1,0.5,0,0,0]];" parent="1" vertex="1">
            <mxGeometry x="1030" y="680" width="100" height="30" as="geometry" />
          </mxCell>
        </UserObject>
        <UserObject label="Hot Labs Restored (LE1)" link="https://www.nexusmods.com/masseffectlegendaryedition/mods/1708" id="XhbC9aTRr4sNY5ImtjRr-22">
          <mxCell style="rounded=1;whiteSpace=wrap;html=1;fillColor=none;fontColor=default;strokeColor=#2D7600;points=[[0,0.5,0,0,0],[0.5,0,0,0,0],[0.5,1,0,0,0],[1,0.5,0,0,0]];" parent="1" vertex="1">
            <mxGeometry x="960" y="120" width="90" height="30" as="geometry" />
          </mxCell>
        </UserObject>
        <UserObject label="Keepers Finders (LE1)" link="https://www.nexusmods.com/masseffectlegendaryedition/mods/1043" id="XhbC9aTRr4sNY5ImtjRr-23">
          <mxCell style="rounded=1;whiteSpace=wrap;html=1;fillColor=none;fontColor=default;strokeColor=#2D7600;points=[[0,0.5,0,0,0],[0.5,0,0,0,0],[0.5,1,0,0,0],[1,0.5,0,0,0]];" parent="1" vertex="1">
            <mxGeometry x="1060" y="600" width="130" height="20" as="geometry" />
          </mxCell>
        </UserObject>
        <UserObject label="Kaidan Alenko Overhaul" link="https://www.nexusmods.com/masseffectlegendaryedition/mods/1213" id="XhbC9aTRr4sNY5ImtjRr-24">
          <mxCell style="rounded=1;whiteSpace=wrap;html=1;fillColor=light-dark(#4A890C,#4A890C);fontColor=default;strokeColor=#2D7600;points=[[0,0.5,0,0,0],[0.5,0,0,0,0],[0.5,1,0,0,0],[1,0.5,0,0,0]];sketch=1;curveFitting=1;jiggle=2;" parent="1" vertex="1">
            <mxGeometry x="800" y="340" width="90" height="30" as="geometry" />
          </mxCell>
        </UserObject>
        <UserObject label="Mission Timings" link="https://www.nexusmods.com/masseffectlegendaryedition/mods/754" id="XhbC9aTRr4sNY5ImtjRr-25">
          <mxCell style="rounded=1;whiteSpace=wrap;html=1;fillColor=none;fontColor=default;strokeColor=#2D7600;points=[[0,0.5,0,0,0],[0.5,0,0,0,0],[0.5,1,0,0,0],[1,0.5,0,0,0]];" parent="1" vertex="1">
            <mxGeometry x="1030" y="830" width="100" height="20" as="geometry" />
          </mxCell>
        </UserObject>
        <UserObject label="Mako Squadmate Banter" link="https://www.nexusmods.com/masseffectlegendaryedition/mods/1310" id="XhbC9aTRr4sNY5ImtjRr-26">
          <mxCell style="rounded=1;whiteSpace=wrap;html=1;fillColor=none;fontColor=default;strokeColor=#2D7600;points=[[0,0.5,0,0,0],[0.5,0,0,0,0],[0.5,1,0,0,0],[1,0.5,0,0,0]];" parent="1" vertex="1">
            <mxGeometry x="1030" y="720" width="100" height="30" as="geometry" />
          </mxCell>
        </UserObject>
        <UserObject label="ME3 Alliance Marine Armor for LE1" link="https://www.nexusmods.com/masseffectlegendaryedition/mods/838" id="XhbC9aTRr4sNY5ImtjRr-27">
          <mxCell style="rounded=1;whiteSpace=wrap;html=1;fillColor=none;fontColor=default;strokeColor=#2D7600;fontSize=10;points=[[0,0.5,0,0,0],[0.5,0,0,0,0],[0.5,1,0,0,0],[1,0.5,0,0,0]];" parent="1" vertex="1">
            <mxGeometry x="590" y="395" width="100" height="30" as="geometry" />
          </mxCell>
        </UserObject>
        <UserObject label="ME¹LLO" link="https://www.nexusmods.com/masseffectlegendaryedition/mods/1500" id="XhbC9aTRr4sNY5ImtjRr-28">
          <mxCell style="rounded=1;whiteSpace=wrap;html=1;fillColor=light-dark(#E51400,#E51400);fontColor=default;strokeColor=#B20000;fillStyle=auto;sketch=1;curveFitting=1;jiggle=2;points=[[0,0.5,0,0,0],[0.5,0,0,0,0],[0.5,1,0,0,0],[1,0.5,0,0,0]];" parent="1" vertex="1">
            <mxGeometry x="190" y="45" width="60" height="20" as="geometry" />
          </mxCell>
        </UserObject>
        <UserObject label="N7 Warfare Pack (AMM Addon)" link="https://www.nexusmods.com/masseffectlegendaryedition/mods/2325" id="XhbC9aTRr4sNY5ImtjRr-29">
          <mxCell style="rounded=1;whiteSpace=wrap;html=1;fillColor=none;fontColor=default;strokeColor=#2D7600;points=[[0,0.5,0,0,0],[0.5,0,0,0,0],[0.5,1,0,0,0],[1,0.5,0,0,0]];" parent="1" vertex="1">
            <mxGeometry x="1030" y="970" width="100" height="30" as="geometry" />
          </mxCell>
        </UserObject>
        <UserObject label="Morlan&#39;s &#39;Famous&#39; Iconic Armor Shop" link="https://www.nexusmods.com/masseffectlegendaryedition/mods/684" id="XhbC9aTRr4sNY5ImtjRr-30">
          <mxCell style="rounded=1;whiteSpace=wrap;html=1;fillColor=none;fontColor=default;strokeColor=#2D7600;points=[[0,0.5,0,0,0],[0.5,0,0,0,0],[0.5,1,0,0,0],[1,0.5,0,0,0]];" parent="1" vertex="1">
            <mxGeometry x="1030" y="860" width="110" height="30" as="geometry" />
          </mxCell>
        </UserObject>
        <UserObject label="N7 MAKO (LE1)" link="https://www.nexusmods.com/masseffectlegendaryedition/mods/309" id="XhbC9aTRr4sNY5ImtjRr-31">
          <mxCell style="rounded=1;whiteSpace=wrap;html=1;fillColor=none;fontColor=default;strokeColor=#2D7600;points=[[0,0.5,0,0,0],[0.5,0,0,0,0],[0.5,1,0,0,0],[1,0.5,0,0,0]];" parent="1" vertex="1">
            <mxGeometry x="1030" y="940" width="100" height="20" as="geometry" />
          </mxCell>
        </UserObject>
        <UserObject label="Myriad Pro Begone (LE1)" link="https://www.nexusmods.com/masseffectlegendaryedition/mods/1070" id="XhbC9aTRr4sNY5ImtjRr-32">
          <mxCell style="rounded=1;whiteSpace=wrap;html=1;fillColor=none;fontColor=default;strokeColor=#2D7600;points=[[0,0.5,0,0,0],[0.5,0,0,0,0],[0.5,1,0,0,0],[1,0.5,0,0,0]];" parent="1" vertex="1">
            <mxGeometry x="1030" y="900" width="90" height="30" as="geometry" />
          </mxCell>
        </UserObject>
        <UserObject label="Normandy Rapid Transit" link="https://www.nexusmods.com/masseffectlegendaryedition/mods/755" id="XhbC9aTRr4sNY5ImtjRr-33">
          <mxCell style="rounded=1;whiteSpace=wrap;html=1;fillColor=none;fontColor=default;strokeColor=#2D7600;points=[[0,0.5,0,0,0],[0.5,0,0,0,0],[0.5,1,0,0,0],[1,0.5,0,0,0]];" parent="1" vertex="1">
            <mxGeometry x="1030" y="1050" width="100" height="30" as="geometry" />
          </mxCell>
        </UserObject>
        <UserObject label="No Mouse Acceleration for ME1 LE" link="https://www.nexusmods.com/masseffectlegendaryedition/mods/319" id="XhbC9aTRr4sNY5ImtjRr-34">
          <mxCell style="rounded=1;whiteSpace=wrap;html=1;fillColor=none;fontColor=default;strokeColor=#2D7600;fontSize=11;points=[[0,0.5,0,0,0],[0.5,0,0,0,0],[0.5,1,0,0,0],[1,0.5,0,0,0]];" parent="1" vertex="1">
            <mxGeometry x="1030" y="1010" width="120" height="30" as="geometry" />
          </mxCell>
        </UserObject>
        <UserObject label="Prothean Consistency Mod (LE1)" link="https://www.nexusmods.com/masseffectlegendaryedition/mods/1538" id="XhbC9aTRr4sNY5ImtjRr-35">
          <mxCell style="rounded=1;whiteSpace=wrap;html=1;fillColor=none;fontColor=default;strokeColor=#2D7600;points=[[0,0.5,0,0,0],[0.5,0,0,0,0],[0.5,1,0,0,0],[1,0.5,0,0,0]];" parent="1" vertex="1">
            <mxGeometry x="1230" y="680" width="120" height="30" as="geometry" />
          </mxCell>
        </UserObject>
        <UserObject label="Paragade Persuasion" link="https://www.nexusmods.com/masseffectlegendaryedition/mods/1673" id="XhbC9aTRr4sNY5ImtjRr-36">
          <mxCell style="rounded=1;whiteSpace=wrap;html=1;fillColor=none;fontColor=default;strokeColor=#2D7600;points=[[0,0.5,0,0,0],[0.5,0,0,0,0],[0.5,1,0,0,0],[1,0.5,0,0,0]];" parent="1" vertex="1">
            <mxGeometry x="1030" y="1090" width="120" height="20" as="geometry" />
          </mxCell>
        </UserObject>
        <mxCell id="hEbEdlZakMNNl_RcjGQe-1" style="edgeStyle=orthogonalEdgeStyle;rounded=0;orthogonalLoop=1;jettySize=auto;html=1;exitX=1;exitY=0.5;exitDx=0;exitDy=0;entryX=0;entryY=0.5;entryDx=0;entryDy=0;curved=1;" edge="1" parent="1" source="XhbC9aTRr4sNY5ImtjRr-37" target="XhbC9aTRr4sNY5ImtjRr-7">
          <mxGeometry relative="1" as="geometry" />
        </mxCell>
        <mxCell id="hEbEdlZakMNNl_RcjGQe-12" style="edgeStyle=orthogonalEdgeStyle;shape=connector;curved=1;rounded=0;orthogonalLoop=1;jettySize=auto;html=1;strokeColor=default;align=center;verticalAlign=middle;fontFamily=Helvetica;fontSize=11;fontColor=default;labelBackgroundColor=default;endArrow=classic;" edge="1" parent="1" source="XhbC9aTRr4sNY5ImtjRr-37" target="XhbC9aTRr4sNY5ImtjRr-16">
          <mxGeometry relative="1" as="geometry" />
        </mxCell>
        <UserObject label="Private Message Terminal (LE1)" link="https://www.nexusmods.com/masseffectlegendaryedition/mods/1525" id="XhbC9aTRr4sNY5ImtjRr-37">
          <mxCell style="rounded=1;whiteSpace=wrap;html=1;fillColor=light-dark(#666666,#666666);fontColor=default;strokeColor=light-dark(#666666,#666666);points=[[0,0.5,0,0,0],[0.5,0,0,0,0],[0.5,1,0,0,0],[1,0.5,0,0,0]];sketch=1;curveFitting=1;jiggle=2;" parent="1" vertex="1">
            <mxGeometry x="230" y="1000" width="100" height="30" as="geometry" />
          </mxCell>
        </UserObject>
        <UserObject label="Pinnacle Station DLC" link="https://www.nexusmods.com/masseffectlegendaryedition/mods/832" id="XhbC9aTRr4sNY5ImtjRr-38">
          <mxCell style="rounded=1;whiteSpace=wrap;html=1;fillColor=none;fontColor=default;strokeColor=#2D7600;points=[[0,0.5,0,0,0],[0.5,0,0,0,0],[0.5,1,0,0,0],[1,0.5,0,0,0]];" parent="1" vertex="1">
            <mxGeometry x="1030" y="1120" width="120" height="20" as="geometry" />
          </mxCell>
        </UserObject>
        <UserObject label="Quick Loot" link="https://www.nexusmods.com/masseffectlegendaryedition/mods/1026" id="XhbC9aTRr4sNY5ImtjRr-39">
          <mxCell style="rounded=1;whiteSpace=wrap;html=1;fillColor=none;fontColor=default;strokeColor=#2D7600;points=[[0,0.5,0,0,0],[0.5,0,0,0,0],[0.5,1,0,0,0],[1,0.5,0,0,0]];" parent="1" vertex="1">
            <mxGeometry x="1230" y="760" width="70" height="20" as="geometry" />
          </mxCell>
        </UserObject>
        <UserObject label="Punch Charles Saracino" link="https://www.nexusmods.com/masseffectlegendaryedition/mods/1524" id="XhbC9aTRr4sNY5ImtjRr-40">
          <mxCell style="rounded=1;whiteSpace=wrap;html=1;fillColor=none;fontColor=default;strokeColor=#2D7600;points=[[0,0.5,0,0,0],[0.5,0,0,0,0],[0.5,1,0,0,0],[1,0.5,0,0,0]];" parent="1" vertex="1">
            <mxGeometry x="1230" y="720" width="90" height="30" as="geometry" />
          </mxCell>
        </UserObject>
        <UserObject label="Scoped Overheat" link="https://www.nexusmods.com/masseffectlegendaryedition/mods/1813" id="XhbC9aTRr4sNY5ImtjRr-41">
          <mxCell style="rounded=1;whiteSpace=wrap;html=1;fillColor=none;fontColor=default;strokeColor=#2D7600;points=[[0,0.5,0,0,0],[0.5,0,0,0,0],[0.5,1,0,0,0],[1,0.5,0,0,0]];" parent="1" vertex="1">
            <mxGeometry x="1230" y="870" width="100" height="20" as="geometry" />
          </mxCell>
        </UserObject>
        <UserObject label="Return to Normandy LE1" link="https://www.nexusmods.com/masseffectlegendaryedition/mods/1580" id="XhbC9aTRr4sNY5ImtjRr-42">
          <mxCell style="rounded=1;whiteSpace=wrap;html=1;fillColor=none;fontColor=default;strokeColor=#2D7600;points=[[0,0.5,0,0,0],[0.5,0,0,0,0],[0.5,1,0,0,0],[1,0.5,0,0,0]];" parent="1" vertex="1">
            <mxGeometry x="1230" y="790" width="90" height="30" as="geometry" />
          </mxCell>
        </UserObject>
        <mxCell id="hEbEdlZakMNNl_RcjGQe-8" style="edgeStyle=orthogonalEdgeStyle;shape=connector;curved=1;rounded=0;orthogonalLoop=1;jettySize=auto;html=1;entryX=0;entryY=0.5;entryDx=0;entryDy=0;strokeColor=light-dark(#CC6600,#CC6600);align=center;verticalAlign=middle;fontFamily=Helvetica;fontSize=11;fontColor=default;labelBackgroundColor=default;endArrow=classic;strokeWidth=2;" edge="1" parent="1" source="XhbC9aTRr4sNY5ImtjRr-43" target="XhbC9aTRr4sNY5ImtjRr-9">
          <mxGeometry relative="1" as="geometry" />
        </mxCell>
        <mxCell id="hEbEdlZakMNNl_RcjGQe-22" style="edgeStyle=orthogonalEdgeStyle;shape=connector;curved=1;rounded=0;orthogonalLoop=1;jettySize=auto;html=1;entryX=0;entryY=0.5;entryDx=0;entryDy=0;strokeColor=light-dark(#CC6600,#CC6600);align=center;verticalAlign=middle;fontFamily=Helvetica;fontSize=11;fontColor=default;labelBackgroundColor=default;endArrow=classic;strokeWidth=2;" edge="1" parent="1" source="XhbC9aTRr4sNY5ImtjRr-43" target="hEbEdlZakMNNl_RcjGQe-21">
          <mxGeometry relative="1" as="geometry" />
        </mxCell>
        <UserObject label="Saren Stages LE" link="https://www.nexusmods.com/masseffectlegendaryedition/mods/666" id="XhbC9aTRr4sNY5ImtjRr-43">
          <mxCell style="rounded=1;whiteSpace=wrap;html=1;fillColor=light-dark(#CC6600,#CC6600);fontColor=default;strokeColor=light-dark(#FF9933,#FF9933);points=[[0,0.5,0,0,0],[0.5,0,0,0,0],[0.5,1,0,0,0],[1,0.5,0,0,0]];" parent="1" vertex="1">
            <mxGeometry x="190" y="485" width="100" height="20" as="geometry" />
          </mxCell>
        </UserObject>
        <UserObject label="Safely skip the conversation for LE1" link="https://www.nexusmods.com/masseffectlegendaryedition/mods/438" id="XhbC9aTRr4sNY5ImtjRr-44">
          <mxCell style="rounded=1;whiteSpace=wrap;html=1;fillColor=none;fontColor=default;strokeColor=#2D7600;points=[[0,0.5,0,0,0],[0.5,0,0,0,0],[0.5,1,0,0,0],[1,0.5,0,0,0]];" parent="1" vertex="1">
            <mxGeometry x="1230" y="830" width="120" height="30" as="geometry" />
          </mxCell>
        </UserObject>
        <UserObject label="Skip Minigames (LE1)" link="https://www.nexusmods.com/masseffectlegendaryedition/mods/360" id="XhbC9aTRr4sNY5ImtjRr-45">
          <mxCell style="rounded=1;whiteSpace=wrap;html=1;fillColor=none;fontColor=default;strokeColor=#2D7600;points=[[0,0.5,0,0,0],[0.5,0,0,0,0],[0.5,1,0,0,0],[1,0.5,0,0,0]];" parent="1" vertex="1">
            <mxGeometry x="1230" y="900" width="120" height="20" as="geometry" />
          </mxCell>
        </UserObject>
        <UserObject label="Unlimited Sprint and Boost" link="https://www.nexusmods.com/masseffectlegendaryedition/mods/337" id="XhbC9aTRr4sNY5ImtjRr-46">
          <mxCell style="rounded=1;whiteSpace=wrap;html=1;fillColor=none;fontColor=default;strokeColor=#2D7600;points=[[0,0.5,0,0,0],[0.5,0,0,0,0],[0.5,1,0,0,0],[1,0.5,0,0,0]];" parent="1" vertex="1">
            <mxGeometry x="1230" y="1020" width="100" height="30" as="geometry" />
          </mxCell>
        </UserObject>
        <UserObject label="Smoother GUI (LE1)" link="https://www.nexusmods.com/masseffectlegendaryedition/mods/2121" id="XhbC9aTRr4sNY5ImtjRr-47">
          <mxCell style="rounded=1;whiteSpace=wrap;html=1;fillColor=none;fontColor=default;strokeColor=#2D7600;points=[[0,0.5,0,0,0],[0.5,0,0,0,0],[0.5,1,0,0,0],[1,0.5,0,0,0]];" parent="1" vertex="1">
            <mxGeometry x="1230" y="930" width="120" height="20" as="geometry" />
          </mxCell>
        </UserObject>
        <UserObject label="Unique Moons" link="https://www.nexusmods.com/masseffectlegendaryedition/mods/1735" id="XhbC9aTRr4sNY5ImtjRr-48">
          <mxCell style="rounded=1;whiteSpace=wrap;html=1;fillColor=none;fontColor=default;strokeColor=#2D7600;points=[[0,0.5,0,0,0],[0.5,0,0,0,0],[0.5,1,0,0,0],[1,0.5,0,0,0]];" parent="1" vertex="1">
            <mxGeometry x="1230" y="990" width="90" height="20" as="geometry" />
          </mxCell>
        </UserObject>
        <UserObject label="Storm Improvements" link="https://www.nexusmods.com/masseffectlegendaryedition/mods/1971" id="XhbC9aTRr4sNY5ImtjRr-49">
          <mxCell style="rounded=1;whiteSpace=wrap;html=1;fillColor=none;fontColor=default;strokeColor=#2D7600;points=[[0,0.5,0,0,0],[0.5,0,0,0,0],[0.5,1,0,0,0],[1,0.5,0,0,0]];" parent="1" vertex="1">
            <mxGeometry x="1230" y="960" width="120" height="20" as="geometry" />
          </mxCell>
        </UserObject>
        <UserObject label="Vignette Remover" link="https://www.nexusmods.com/masseffectlegendaryedition/mods/428" id="XhbC9aTRr4sNY5ImtjRr-50">
          <mxCell style="rounded=1;whiteSpace=wrap;html=1;fillColor=none;fontColor=default;strokeColor=#2D7600;points=[[0,0.5,0,0,0],[0.5,0,0,0,0],[0.5,1,0,0,0],[1,0.5,0,0,0]];" parent="1" vertex="1">
            <mxGeometry x="1230" y="1060" width="110" height="20" as="geometry" />
          </mxCell>
        </UserObject>
        <UserObject label="XP Rescale (LE1)" link="https://www.nexusmods.com/masseffectlegendaryedition/mods/369" id="XhbC9aTRr4sNY5ImtjRr-52">
          <mxCell style="rounded=1;whiteSpace=wrap;html=1;fillColor=none;fontColor=default;strokeColor=#2D7600;points=[[0,0.5,0,0,0],[0.5,0,0,0,0],[0.5,1,0,0,0],[1,0.5,0,0,0]];" parent="1" vertex="1">
            <mxGeometry x="1230" y="1090" width="110" height="20" as="geometry" />
          </mxCell>
        </UserObject>
        <UserObject label="Delay getting Grounded" link="https://www.nexusmods.com/masseffectlegendaryedition/mods/1989" id="hEbEdlZakMNNl_RcjGQe-10">
          <mxCell style="rounded=1;whiteSpace=wrap;html=1;fillColor=none;fontColor=default;strokeColor=#2D7600;points=[[0,0.5,0,0,0],[0.5,0,0,0,0],[0.5,1,0,0,0],[1,0.5,0,0,0]];" vertex="1" parent="1">
            <mxGeometry x="390" y="1050" width="120" height="30" as="geometry" />
          </mxCell>
        </UserObject>
        <mxCell id="hEbEdlZakMNNl_RcjGQe-11" style="edgeStyle=orthogonalEdgeStyle;shape=connector;curved=1;rounded=0;orthogonalLoop=1;jettySize=auto;html=1;entryX=0;entryY=0.5;entryDx=0;entryDy=0;entryPerimeter=0;strokeColor=default;align=center;verticalAlign=middle;fontFamily=Helvetica;fontSize=11;fontColor=default;labelBackgroundColor=default;endArrow=classic;" edge="1" parent="1" source="XhbC9aTRr4sNY5ImtjRr-37" target="hEbEdlZakMNNl_RcjGQe-10">
          <mxGeometry relative="1" as="geometry" />
        </mxCell>
        <mxCell id="hEbEdlZakMNNl_RcjGQe-13" style="edgeStyle=orthogonalEdgeStyle;shape=connector;curved=1;rounded=0;orthogonalLoop=1;jettySize=auto;html=1;entryX=0;entryY=0.5;entryDx=0;entryDy=0;entryPerimeter=0;strokeColor=light-dark(#4A890C,#4A890C);align=center;verticalAlign=middle;fontFamily=Helvetica;fontSize=11;fontColor=default;labelBackgroundColor=default;endArrow=classic;strokeWidth=2;" edge="1" parent="1" source="XhbC9aTRr4sNY5ImtjRr-1" target="XhbC9aTRr4sNY5ImtjRr-43">
          <mxGeometry relative="1" as="geometry" />
        </mxCell>
        <mxCell id="hEbEdlZakMNNl_RcjGQe-28" style="edgeStyle=orthogonalEdgeStyle;shape=connector;curved=1;rounded=0;orthogonalLoop=1;jettySize=auto;html=1;entryX=0;entryY=0.5;entryDx=0;entryDy=0;strokeColor=light-dark(#4A890C,#4A890C);align=center;verticalAlign=middle;fontFamily=Helvetica;fontSize=11;fontColor=default;labelBackgroundColor=default;endArrow=classic;strokeWidth=2;" edge="1" parent="1" source="hEbEdlZakMNNl_RcjGQe-14" target="hEbEdlZakMNNl_RcjGQe-16">
          <mxGeometry relative="1" as="geometry" />
        </mxCell>
        <mxCell id="hEbEdlZakMNNl_RcjGQe-14" value="" style="shape=ellipse;fillColor=light-dark(#4A890C,#4A890C);strokeColor=none;html=1;sketch=0;fontFamily=Helvetica;fontSize=11;fontColor=default;labelBackgroundColor=default;" vertex="1" parent="1">
          <mxGeometry x="270" y="450" width="20" height="20" as="geometry" />
        </mxCell>
        <mxCell id="hEbEdlZakMNNl_RcjGQe-15" style="edgeStyle=orthogonalEdgeStyle;shape=connector;curved=1;rounded=0;orthogonalLoop=1;jettySize=auto;html=1;exitX=1;exitY=0.5;exitDx=0;exitDy=0;entryX=0;entryY=0.5;entryDx=0;entryDy=0;entryPerimeter=0;strokeColor=light-dark(#4A890C,#4A890C);align=center;verticalAlign=middle;fontFamily=Helvetica;fontSize=11;fontColor=default;labelBackgroundColor=default;endArrow=classic;strokeWidth=2;" edge="1" parent="1" source="hEbEdlZakMNNl_RcjGQe-14" target="XhbC9aTRr4sNY5ImtjRr-9">
          <mxGeometry relative="1" as="geometry" />
        </mxCell>
        <mxCell id="hEbEdlZakMNNl_RcjGQe-16" value="" style="shape=ellipse;fillColor=light-dark(#4A890C,#4A890C);strokeColor=none;html=1;sketch=0;fontFamily=Helvetica;fontSize=11;fontColor=default;labelBackgroundColor=default;" vertex="1" parent="1">
          <mxGeometry x="680" y="450" width="20" height="20" as="geometry" />
        </mxCell>
        <mxCell id="hEbEdlZakMNNl_RcjGQe-18" style="edgeStyle=orthogonalEdgeStyle;shape=connector;curved=1;rounded=0;orthogonalLoop=1;jettySize=auto;html=1;entryX=0;entryY=0.5;entryDx=0;entryDy=0;entryPerimeter=0;strokeColor=light-dark(#E51400,#E51400);align=center;verticalAlign=middle;fontFamily=Helvetica;fontSize=11;fontColor=default;labelBackgroundColor=default;endArrow=classic;strokeWidth=2;" edge="1" parent="1" source="XhbC9aTRr4sNY5ImtjRr-28" target="XhbC9aTRr4sNY5ImtjRr-4">
          <mxGeometry relative="1" as="geometry" />
        </mxCell>
        <mxCell id="hEbEdlZakMNNl_RcjGQe-19" style="edgeStyle=orthogonalEdgeStyle;shape=connector;curved=1;rounded=0;orthogonalLoop=1;jettySize=auto;html=1;entryX=0;entryY=0.5;entryDx=0;entryDy=0;entryPerimeter=0;strokeColor=default;align=center;verticalAlign=middle;fontFamily=Helvetica;fontSize=11;fontColor=default;labelBackgroundColor=default;endArrow=classic;" edge="1" parent="1" source="XhbC9aTRr4sNY5ImtjRr-9" target="XhbC9aTRr4sNY5ImtjRr-4">
          <mxGeometry relative="1" as="geometry" />
        </mxCell>
        <mxCell id="hEbEdlZakMNNl_RcjGQe-20" style="edgeStyle=orthogonalEdgeStyle;shape=connector;curved=1;rounded=0;orthogonalLoop=1;jettySize=auto;html=1;entryX=0;entryY=0.5;entryDx=0;entryDy=0;entryPerimeter=0;strokeColor=default;align=center;verticalAlign=middle;fontFamily=Helvetica;fontSize=11;fontColor=default;labelBackgroundColor=default;endArrow=classic;" edge="1" parent="1" source="XhbC9aTRr4sNY5ImtjRr-9" target="XhbC9aTRr4sNY5ImtjRr-27">
          <mxGeometry relative="1" as="geometry" />
        </mxCell>
        <mxCell id="hEbEdlZakMNNl_RcjGQe-30" style="edgeStyle=orthogonalEdgeStyle;shape=connector;curved=1;rounded=0;orthogonalLoop=1;jettySize=auto;html=1;entryX=0;entryY=0.5;entryDx=0;entryDy=0;strokeColor=light-dark(#CC6600,#CC6600);align=center;verticalAlign=middle;fontFamily=Helvetica;fontSize=11;fontColor=default;labelBackgroundColor=default;endArrow=classic;strokeWidth=2;" edge="1" parent="1" source="hEbEdlZakMNNl_RcjGQe-21" target="hEbEdlZakMNNl_RcjGQe-29">
          <mxGeometry relative="1" as="geometry" />
        </mxCell>
        <mxCell id="hEbEdlZakMNNl_RcjGQe-21" value="" style="shape=ellipse;fillColor=light-dark(#CC6600,#CC6600);strokeColor=none;html=1;sketch=0;fontFamily=Helvetica;fontSize=11;fontColor=default;labelBackgroundColor=default;" vertex="1" parent="1">
          <mxGeometry x="485" y="485" width="20" height="20" as="geometry" />
        </mxCell>
        <mxCell id="hEbEdlZakMNNl_RcjGQe-23" style="edgeStyle=orthogonalEdgeStyle;shape=connector;curved=1;rounded=0;orthogonalLoop=1;jettySize=auto;html=1;entryX=0;entryY=0.5;entryDx=0;entryDy=0;entryPerimeter=0;strokeColor=light-dark(#CC6600,#CC6600);align=center;verticalAlign=middle;fontFamily=Helvetica;fontSize=11;fontColor=default;labelBackgroundColor=default;endArrow=classic;strokeWidth=2;" edge="1" parent="1" source="hEbEdlZakMNNl_RcjGQe-21" target="XhbC9aTRr4sNY5ImtjRr-27">
          <mxGeometry relative="1" as="geometry" />
        </mxCell>
        <UserObject label="Enhanced/Classic Saren Boss Encounters" link="https://www.nexusmods.com/masseffectlegendaryedition/mods/542" id="hEbEdlZakMNNl_RcjGQe-24">
          <mxCell style="rounded=1;whiteSpace=wrap;html=1;fillColor=light-dark(#CC6600,#CC6600);fontColor=default;strokeColor=light-dark(#FF9933,#FF9933);points=[[0,0.5,0,0,0],[0.5,0,0,0,0],[0.5,1,0,0,0],[1,0.5,0,0,0]];" vertex="1" parent="1">
            <mxGeometry x="380" y="510" width="130" height="30" as="geometry" />
          </mxCell>
        </UserObject>
        <mxCell id="hEbEdlZakMNNl_RcjGQe-25" style="edgeStyle=orthogonalEdgeStyle;shape=connector;curved=1;rounded=0;orthogonalLoop=1;jettySize=auto;html=1;entryX=0;entryY=0.5;entryDx=0;entryDy=0;entryPerimeter=0;strokeColor=light-dark(#CC6600,#CC6600);align=center;verticalAlign=middle;fontFamily=Helvetica;fontSize=11;fontColor=default;labelBackgroundColor=default;endArrow=classic;strokeWidth=2;" edge="1" parent="1" source="XhbC9aTRr4sNY5ImtjRr-43" target="hEbEdlZakMNNl_RcjGQe-24">
          <mxGeometry relative="1" as="geometry" />
        </mxCell>
        <mxCell id="hEbEdlZakMNNl_RcjGQe-26" style="edgeStyle=orthogonalEdgeStyle;shape=connector;curved=1;rounded=0;orthogonalLoop=1;jettySize=auto;html=1;entryX=0;entryY=0.5;entryDx=0;entryDy=0;entryPerimeter=0;strokeColor=light-dark(#CC6600,#CC6600);align=center;verticalAlign=middle;fontFamily=Helvetica;fontSize=11;fontColor=default;labelBackgroundColor=default;endArrow=classic;strokeWidth=2;" edge="1" parent="1" source="hEbEdlZakMNNl_RcjGQe-24" target="XhbC9aTRr4sNY5ImtjRr-27">
          <mxGeometry relative="1" as="geometry" />
        </mxCell>
        <mxCell id="hEbEdlZakMNNl_RcjGQe-27" style="edgeStyle=orthogonalEdgeStyle;shape=connector;curved=1;rounded=0;orthogonalLoop=1;jettySize=auto;html=1;entryX=0;entryY=0.5;entryDx=0;entryDy=0;entryPerimeter=0;strokeColor=default;align=center;verticalAlign=middle;fontFamily=Helvetica;fontSize=11;fontColor=default;labelBackgroundColor=default;endArrow=classic;" edge="1" parent="1" source="XhbC9aTRr4sNY5ImtjRr-27" target="XhbC9aTRr4sNY5ImtjRr-4">
          <mxGeometry relative="1" as="geometry" />
        </mxCell>
        <mxCell id="hEbEdlZakMNNl_RcjGQe-29" value="" style="shape=ellipse;fillColor=light-dark(#CC6600,#CC6600);strokeColor=none;html=1;sketch=0;fontFamily=Helvetica;fontSize=11;fontColor=default;labelBackgroundColor=default;" vertex="1" parent="1">
          <mxGeometry x="680" y="485" width="20" height="20" as="geometry" />
        </mxCell>
        <mxCell id="hEbEdlZakMNNl_RcjGQe-31" style="edgeStyle=orthogonalEdgeStyle;shape=connector;curved=1;rounded=0;orthogonalLoop=1;jettySize=auto;html=1;exitX=1;exitY=0.5;exitDx=0;exitDy=0;entryX=0;entryY=0.5;entryDx=0;entryDy=0;entryPerimeter=0;strokeColor=light-dark(#CC6600,#CC6600);align=center;verticalAlign=middle;fontFamily=Helvetica;fontSize=11;fontColor=default;labelBackgroundColor=default;endArrow=classic;strokeWidth=2;" edge="1" parent="1" source="hEbEdlZakMNNl_RcjGQe-29" target="XhbC9aTRr4sNY5ImtjRr-4">
          <mxGeometry relative="1" as="geometry" />
        </mxCell>
        <mxCell id="hEbEdlZakMNNl_RcjGQe-32" style="edgeStyle=orthogonalEdgeStyle;shape=connector;curved=1;rounded=0;orthogonalLoop=1;jettySize=auto;html=1;entryX=0;entryY=0.5;entryDx=0;entryDy=0;entryPerimeter=0;strokeColor=light-dark(#0050EF,#0050EF);align=center;verticalAlign=middle;fontFamily=Helvetica;fontSize=11;fontColor=default;labelBackgroundColor=default;endArrow=classic;strokeWidth=3;exitX=1;exitY=0.5;exitDx=0;exitDy=0;" edge="1" parent="1" source="hEbEdlZakMNNl_RcjGQe-41" target="XhbC9aTRr4sNY5ImtjRr-4">
          <mxGeometry relative="1" as="geometry" />
        </mxCell>
        <mxCell id="hEbEdlZakMNNl_RcjGQe-33" style="edgeStyle=orthogonalEdgeStyle;shape=connector;curved=1;rounded=0;orthogonalLoop=1;jettySize=auto;html=1;entryX=0;entryY=0.5;entryDx=0;entryDy=0;entryPerimeter=0;strokeColor=default;align=center;verticalAlign=middle;fontFamily=Helvetica;fontSize=11;fontColor=default;labelBackgroundColor=default;endArrow=classic;" edge="1" parent="1" source="XhbC9aTRr4sNY5ImtjRr-8" target="XhbC9aTRr4sNY5ImtjRr-4">
          <mxGeometry relative="1" as="geometry" />
        </mxCell>
        <mxCell id="hEbEdlZakMNNl_RcjGQe-34" style="shape=connector;rounded=0;orthogonalLoop=1;jettySize=auto;html=1;entryX=0.5;entryY=0;entryDx=0;entryDy=0;entryPerimeter=0;strokeColor=light-dark(#4A890C,#4A890C);align=center;verticalAlign=middle;fontFamily=Helvetica;fontSize=11;fontColor=default;labelBackgroundColor=default;endArrow=none;startFill=0;dashed=1;" edge="1" parent="1" source="XhbC9aTRr4sNY5ImtjRr-8" target="XhbC9aTRr4sNY5ImtjRr-11">
          <mxGeometry relative="1" as="geometry" />
        </mxCell>
        <mxCell id="hEbEdlZakMNNl_RcjGQe-36" style="edgeStyle=orthogonalEdgeStyle;shape=connector;curved=1;rounded=0;orthogonalLoop=1;jettySize=auto;html=1;entryX=0;entryY=0.5;entryDx=0;entryDy=0;entryPerimeter=0;strokeColor=default;align=center;verticalAlign=middle;fontFamily=Helvetica;fontSize=11;fontColor=default;labelBackgroundColor=default;endArrow=classic;" edge="1" parent="1" source="XhbC9aTRr4sNY5ImtjRr-17" target="XhbC9aTRr4sNY5ImtjRr-4">
          <mxGeometry relative="1" as="geometry" />
        </mxCell>
        <mxCell id="hEbEdlZakMNNl_RcjGQe-37" style="edgeStyle=orthogonalEdgeStyle;shape=connector;curved=1;rounded=0;orthogonalLoop=1;jettySize=auto;html=1;entryX=0;entryY=0.5;entryDx=0;entryDy=0;entryPerimeter=0;strokeColor=default;align=center;verticalAlign=middle;fontFamily=Helvetica;fontSize=11;fontColor=default;labelBackgroundColor=default;endArrow=classic;" edge="1" parent="1" source="XhbC9aTRr4sNY5ImtjRr-10" target="XhbC9aTRr4sNY5ImtjRr-4">
          <mxGeometry relative="1" as="geometry" />
        </mxCell>
        <mxCell id="hEbEdlZakMNNl_RcjGQe-38" style="edgeStyle=orthogonalEdgeStyle;shape=connector;curved=1;rounded=0;orthogonalLoop=1;jettySize=auto;html=1;entryX=0;entryY=0.5;entryDx=0;entryDy=0;entryPerimeter=0;strokeColor=default;align=center;verticalAlign=middle;fontFamily=Helvetica;fontSize=11;fontColor=default;labelBackgroundColor=default;endArrow=classic;" edge="1" parent="1" source="XhbC9aTRr4sNY5ImtjRr-9" target="XhbC9aTRr4sNY5ImtjRr-12">
          <mxGeometry relative="1" as="geometry" />
        </mxCell>
        <mxCell id="hEbEdlZakMNNl_RcjGQe-39" style="edgeStyle=orthogonalEdgeStyle;shape=connector;curved=1;rounded=0;orthogonalLoop=1;jettySize=auto;html=1;entryX=0;entryY=0.5;entryDx=0;entryDy=0;entryPerimeter=0;strokeColor=light-dark(#0050EF,#0050EF);align=center;verticalAlign=middle;fontFamily=Helvetica;fontSize=11;fontColor=default;labelBackgroundColor=default;endArrow=classic;strokeWidth=3;exitX=1;exitY=0.5;exitDx=0;exitDy=0;" edge="1" parent="1" source="hEbEdlZakMNNl_RcjGQe-41" target="XhbC9aTRr4sNY5ImtjRr-12">
          <mxGeometry relative="1" as="geometry" />
        </mxCell>
        <mxCell id="hEbEdlZakMNNl_RcjGQe-48" style="edgeStyle=orthogonalEdgeStyle;shape=connector;curved=1;rounded=0;orthogonalLoop=1;jettySize=auto;html=1;entryX=0;entryY=0.5;entryDx=0;entryDy=0;strokeColor=light-dark(#0050EF,#0050EF);align=center;verticalAlign=middle;fontFamily=Helvetica;fontSize=11;fontColor=default;labelBackgroundColor=default;endArrow=classic;strokeWidth=3;" edge="1" parent="1" source="hEbEdlZakMNNl_RcjGQe-41" target="hEbEdlZakMNNl_RcjGQe-47">
          <mxGeometry relative="1" as="geometry" />
        </mxCell>
        <mxCell id="hEbEdlZakMNNl_RcjGQe-41" value="" style="shape=ellipse;fillColor=light-dark(#0050EF,#0050EF);strokeColor=none;html=1;sketch=0;fontFamily=Helvetica;fontSize=11;fontColor=default;labelBackgroundColor=default;" vertex="1" parent="1">
          <mxGeometry x="537" y="85" width="20" height="20" as="geometry" />
        </mxCell>
        <UserObject label="Charted Worlds (LE1)" link="https://www.nexusmods.com/masseffectlegendaryedition/mods/524" id="hEbEdlZakMNNl_RcjGQe-43">
          <mxCell style="rounded=1;whiteSpace=wrap;html=1;fillColor=none;fontColor=default;strokeColor=#2D7600;points=[[0,0.5,0,0,0],[0.5,0,0,0,0],[0.5,1,0,0,0],[1,0.5,0,0,0]];" vertex="1" parent="1">
            <mxGeometry x="390" y="600" width="120" height="20" as="geometry" />
          </mxCell>
        </UserObject>
        <mxCell id="hEbEdlZakMNNl_RcjGQe-44" style="shape=connector;rounded=0;orthogonalLoop=1;jettySize=auto;html=1;entryX=0.5;entryY=0;entryDx=0;entryDy=0;entryPerimeter=0;strokeColor=light-dark(#E51400,#E51400);align=center;verticalAlign=middle;fontFamily=Helvetica;fontSize=11;fontColor=default;labelBackgroundColor=default;endArrow=none;dashed=1;startFill=0;" edge="1" parent="1" source="XhbC9aTRr4sNY5ImtjRr-12" target="XhbC9aTRr4sNY5ImtjRr-14">
          <mxGeometry relative="1" as="geometry" />
        </mxCell>
        <mxCell id="hEbEdlZakMNNl_RcjGQe-45" style="edgeStyle=orthogonalEdgeStyle;shape=connector;curved=1;rounded=0;orthogonalLoop=1;jettySize=auto;html=1;entryX=0;entryY=0.5;entryDx=0;entryDy=0;entryPerimeter=0;strokeColor=light-dark(#0050EF,#0050EF);align=center;verticalAlign=middle;fontFamily=Helvetica;fontSize=11;fontColor=default;labelBackgroundColor=default;endArrow=classic;strokeWidth=3;" edge="1" parent="1" source="XhbC9aTRr4sNY5ImtjRr-3" target="hEbEdlZakMNNl_RcjGQe-43">
          <mxGeometry relative="1" as="geometry" />
        </mxCell>
        <mxCell id="hEbEdlZakMNNl_RcjGQe-46" style="edgeStyle=orthogonalEdgeStyle;shape=connector;curved=1;rounded=0;orthogonalLoop=1;jettySize=auto;html=1;entryX=0;entryY=0.5;entryDx=0;entryDy=0;entryPerimeter=0;strokeColor=light-dark(#0050EF,#0050EF);align=center;verticalAlign=middle;fontFamily=Helvetica;fontSize=11;fontColor=default;labelBackgroundColor=default;endArrow=classic;strokeWidth=3;" edge="1" parent="1" source="XhbC9aTRr4sNY5ImtjRr-3" target="XhbC9aTRr4sNY5ImtjRr-19">
          <mxGeometry relative="1" as="geometry" />
        </mxCell>
        <mxCell id="hEbEdlZakMNNl_RcjGQe-47" value="" style="shape=ellipse;fillColor=light-dark(#0050EF,#0050EF);strokeColor=none;html=1;sketch=0;fontFamily=Helvetica;fontSize=11;fontColor=default;labelBackgroundColor=default;" vertex="1" parent="1">
          <mxGeometry x="880" y="150" width="20" height="20" as="geometry" />
        </mxCell>
        <mxCell id="hEbEdlZakMNNl_RcjGQe-49" style="edgeStyle=orthogonalEdgeStyle;shape=connector;curved=1;rounded=0;orthogonalLoop=1;jettySize=auto;html=1;entryX=0;entryY=0.5;entryDx=0;entryDy=0;entryPerimeter=0;strokeColor=light-dark(#0050EF,#0050EF);align=center;verticalAlign=middle;fontFamily=Helvetica;fontSize=11;fontColor=default;labelBackgroundColor=default;endArrow=classic;strokeWidth=3;" edge="1" parent="1" source="XhbC9aTRr4sNY5ImtjRr-4" target="XhbC9aTRr4sNY5ImtjRr-22">
          <mxGeometry relative="1" as="geometry" />
        </mxCell>
        <mxCell id="hEbEdlZakMNNl_RcjGQe-50" style="edgeStyle=orthogonalEdgeStyle;shape=connector;curved=1;rounded=0;orthogonalLoop=1;jettySize=auto;html=1;exitX=1;exitY=0.5;exitDx=0;exitDy=0;entryX=0;entryY=0.5;entryDx=0;entryDy=0;entryPerimeter=0;strokeColor=light-dark(#0050EF,#0050EF);align=center;verticalAlign=middle;fontFamily=Helvetica;fontSize=11;fontColor=default;labelBackgroundColor=default;endArrow=classic;strokeWidth=3;" edge="1" parent="1" source="hEbEdlZakMNNl_RcjGQe-47" target="XhbC9aTRr4sNY5ImtjRr-22">
          <mxGeometry relative="1" as="geometry" />
        </mxCell>
        <mxCell id="hEbEdlZakMNNl_RcjGQe-51" style="edgeStyle=orthogonalEdgeStyle;shape=connector;curved=1;rounded=0;orthogonalLoop=1;jettySize=auto;html=1;entryX=0;entryY=0.5;entryDx=0;entryDy=0;entryPerimeter=0;strokeColor=light-dark(#4A890C,#4A890C);align=center;verticalAlign=middle;fontFamily=Helvetica;fontSize=11;fontColor=default;labelBackgroundColor=default;endArrow=classic;strokeWidth=2;" edge="1" parent="1" source="hEbEdlZakMNNl_RcjGQe-16" target="XhbC9aTRr4sNY5ImtjRr-24">
          <mxGeometry relative="1" as="geometry" />
        </mxCell>
        <mxCell id="hEbEdlZakMNNl_RcjGQe-52" style="edgeStyle=orthogonalEdgeStyle;shape=connector;curved=1;rounded=0;orthogonalLoop=1;jettySize=auto;html=1;entryX=0;entryY=0.5;entryDx=0;entryDy=0;entryPerimeter=0;strokeColor=default;align=center;verticalAlign=middle;fontFamily=Helvetica;fontSize=11;fontColor=default;labelBackgroundColor=default;endArrow=classic;" edge="1" parent="1" source="XhbC9aTRr4sNY5ImtjRr-9" target="XhbC9aTRr4sNY5ImtjRr-24">
          <mxGeometry relative="1" as="geometry" />
        </mxCell>
        <mxCell id="hEbEdlZakMNNl_RcjGQe-53" style="edgeStyle=orthogonalEdgeStyle;shape=connector;curved=1;rounded=0;orthogonalLoop=1;jettySize=auto;html=1;entryX=0;entryY=0.5;entryDx=0;entryDy=0;entryPerimeter=0;strokeColor=default;align=center;verticalAlign=middle;fontFamily=Helvetica;fontSize=11;fontColor=default;labelBackgroundColor=default;endArrow=classic;" edge="1" parent="1" source="XhbC9aTRr4sNY5ImtjRr-13" target="XhbC9aTRr4sNY5ImtjRr-24">
          <mxGeometry relative="1" as="geometry" />
        </mxCell>
      </root>
    </mxGraphModel>
  </diagram>
</mxfile>
